<?xml version="1.0" encoding="UTF-8"?>
<svg id="Layer_2" xmlns="http://www.w3.org/2000/svg" version="1.1" viewBox="0 0 1152 576">
  <!-- Generator: Adobe Illustrator 29.2.1, SVG Export Plug-In . SVG Version: 2.1.0 Build 116)  -->
  <defs>
    <style>
      .st0 {
        fill: #21201e;
      }

      .st1 {
        opacity: .6;
      }

      .st1, .st2 {
        isolation: isolate;
      }

      .st1, .st2, .st3 {
        fill: #6fceed;
      }

      .st2 {
        opacity: .8;
      }

      .st4 {
        fill: #fffdee;
      }
    </style>
  </defs>
  <rect class="st4" width="1152" height="576"/>
  <g id="Layer_1-2">
    <g>
      <g>
        <path class="st1" d="M526.39739,323.97335l-40.62564,54.12381c-10.61509,14.15343-27.38952,22.54068-45.08135,22.54068h-135.24401v90.16269h135.24405c10.61509,0,20.70596-5.11094,26.99639-13.49815l40.6256-54.12381c10.61505-14.15343,27.38958-22.54068,45.08139-22.54068h293.02867v-90.16265h-293.02867c-10.61505,0-20.70596,5.11094-26.99635,13.49815h-.00008v-.00004Z"/>
        <path class="st3" d="M553.39374,85.06843c-10.61505,0-20.70596,5.11096-26.99635,13.4982l-40.62564,54.12383c-10.61509,14.15345-27.38952,22.54066-45.08135,22.54066h-135.24401v90.16267h135.24405c10.61509,0,20.70596-5.11094,26.99639-13.49815l40.6256-54.12383c10.61505-14.15345,27.38958-22.54066,45.08139-22.54066h293.02867v-90.16269h-293.02875v-.00002Z"/>
        <path class="st2" d="M526.39739,211.27l-40.62564,54.12379c-10.61509,14.15343-27.38952,22.54068-45.08135,22.54068h-135.24401v90.16269h135.24405c10.61509,0,20.70596-5.11094,26.99639-13.49815l40.6256-54.12381c10.61505-14.15343,27.38958-22.54068,45.08139-22.54068h293.02867v-90.16269h-293.02867c-10.61505,0-20.70596,5.11098-26.99635,13.4982h-.00008v-.00002Z"/>
      </g>
      <g>
        <path class="st0" d="M556.01474,490.8005v-51.50281h-20.70594v-16.1192h59.23479v16.1192h-20.70594v51.50281h-17.82291Z"/>
        <path class="st0" d="M600.57187,490.8005v-67.62205h17.82283v25.16169h24.89959v-25.16169h17.82283v67.62201h-17.82283v-26.99639h-24.89959v26.99639h-17.82283v.00004Z"/>
        <path class="st0" d="M720.35199,490.8005h-47.8334v-67.62205h47.17813v15.46393h-29.35534v9.69772h26.60322v15.46393h-26.60322v11.53242h30.01057v15.46393h0v.00008l.00004.00004Z"/>
        <path class="st0" d="M746.03784,490.8005v-51.50281h-20.70594v-16.1192h59.23479v16.1192h-20.70594v51.50281h-17.82291Z"/>
        <path class="st0" d="M823.09547,478.35074h-23.72007l-4.19361,12.58082h-17.9539l25.03062-67.62205h19.52655l24.76856,67.62201h-19.26445l-4.19361-12.58082h0l-.00008.00004ZM804.09316,464.19732h14.28454l-7.07675-21.49224-7.20778,21.49224Z"/>
      </g>
    </g>
  </g>
</svg>